PathFileType	4	(X/Y/Z)	S01_0014_Gait_markers.trc
DataRate	CameraRate	NumFrames	NumMarkers	Units	OrigDataRate	OrigDataStartFrame	OrigNumFrames
250.000000	250.000000	4	54	mm	250.000000	45	367
Frame#	Time	HEAD_ANT			R_HEAD			L_HEAD			C7			R_BACK			L_BACK			STERNUM			R_ACROMION			R_HUM_PROX			R_HUM_ANT			R_HUM_POST			R_ELBOW_LAT			R_ELBOW_MED			R_FOREARM			R_WIRST_LAT			R_WRITS_MED			R_HAND			L_ACROMION			L_HUM_PROX			L_HUM_ANT			L_HUM_POST			L_ELBOW_LAT			L_ELBOW_MED			L_FOREARM			L_WRIST_LAT			L_WIRST_MED			L_HAND			R_ILIAC			SACRUM			L_ILIAC			R_GTROCH			R_THIGH__1			R_THIGH_2			R_THIGH_3			R_THIGH_4			R_SHANK_1			R_SHANK_2			R_SHANK_3			R_SHANK_4			R_HEEL			R_FOOT_LAT			R_FOOT_MED			L_GTROCH			L_THIGH_1			L_THIGH_2			L_THIGH_3			L_THIGH_4			L_SHANK_1			L_SHANK_2			L_SHANK_3			L_SHANK_4			L_HEEL			L_FOOT_LAT			L_FOOT_MED			
		X1	Y1	Z1	X2	Y2	Z2	X3	Y3	Z3	X4	Y4	Z4	X5	Y5	Z5	X6	Y6	Z6	X7	Y7	Z7	X8	Y8	Z8	X9	Y9	Z9	X10	Y10	Z10	X11	Y11	Z11	X12	Y12	Z12	X13	Y13	Z13	X14	Y14	Z14	X15	Y15	Z15	X16	Y16	Z16	X17	Y17	Z17	X18	Y18	Z18	X19	Y19	Z19	X20	Y20	Z20	X21	Y21	Z21	X22	Y22	Z22	X23	Y23	Z23	X24	Y24	Z24	X25	Y25	Z25	X26	Y26	Z26	X27	Y27	Z27	X28	Y28	Z28	X29	Y29	Z29	X30	Y30	Z30	X31	Y31	Z31	X32	Y32	Z32	X33	Y33	Z33	X34	Y34	Z34	X35	Y35	Z35	X36	Y36	Z36	X37	Y37	Z37	X38	Y38	Z38	X39	Y39	Z39	X40	Y40	Z40	X41	Y41	Z41	X42	Y42	Z42	X43	Y43	Z43	X44	Y44	Z44	X45	Y45	Z45	X46	Y46	Z46	X47	Y47	Z47	X48	Y48	Z48	X49	Y49	Z49	X50	Y50	Z50	X51	Y51	Z51	X52	Y52	Z52	X53	Y53	Z53	X54	Y54	Z54	

46	0.18	243.9701080322266	1705.398681640625	-286.290130615234	184.6504974365234	1655.46435546875	-209.4735260009762	185.4437561035156	1656.406616210938	-356.8390197753903	48.50606155395508	1487.106567382812	-293.8776550292965	-30.75720405578613	1289.785888671875	-239.1102600097653	-19.28128242492676	1297.124633789062	-377.829895019531	222.2021484375	1321.8310546875	-281.7581787109372	111.1909332275391	1433.618896484375	-116.3641815185544	59.83829498291016	1271.416625976562	-34.73839569091768	118.1748428344727	1184.282958984375	-28.04373931884739	-3.408952951431274	1189.1044921875	-31.46146965026829	39.10429763793945	1082.736572265625	-24.19351387023902	30.29131507873535	1079.836791992188	-103.9776763916013	124.5864868164062	893.9962158203125	-8.645803451537887	163.3712463378906	826.1445922851562	-45.66862106323224	90.96070098876953	806.815673828125	-14.77911853790265	155.3520965576172	739.3524780273438	12.00413608551042	140.2412109375	1445.543579101562	-454.6859130859372	129.6587066650391	1282.971435546875	-556.3448486328122	193.7691955566406	1203.676147460938	-551.0301513671873	75.74755859375	1204.714599609375	-588.5199584960935	139.2609558105469	1102.084350585938	-595.2744140624998	79.89174652099609	1091.382690429688	-544.7448730468748	263.0517883300781	941.1470947265626	-554.4034423828123	296.9136657714844	887.5324707031251	-495.9589843749998	262.3879699707031	857.4105834960939	-562.824768066406	342.6002502441406	812.4290161132814	-533.9732666015623	108.5093841552734	1035.15673828125	-128.0409851074216	-10.17509460449219	1014.898315429688	-298.5663757324216	111.5381851196289	1033.394165039062	-474.3564758300779	76.99222564697266	886.3217163085938	-115.9649658203123	206.7382965087891	624.933837890625	-137.352340698242	253.5862731933594	659.9378662109375	-131.5383148193358	295.2589111328125	567.3394165039062	-168.6914978027343	232.7730865478516	549.3158569335938	-160.4426116943358	293.6930541992188	334.9767456054688	-154.1709747314452	352.8810424804688	331.6901245117188	-167.3846435546874	374.2300415039062	249.5625610351563	-184.3731231689453	311.39794921875	236.313949584961	-176.1923065185546	337.8905029296875	31.55524063110357	-260.0418701171875	498.4027709960938	39.65716552734379	-172.77197265625	547.767822265625	71.00011444091803	-260.49365234375	63.53622817993164	930.0671386718751	-476.0561523437498	63.45307540893555	636.8381958007814	-460.7463989257811	18.82245445251465	672.2930908203126	-476.8690795898436	-26.21670532226562	579.4575805664064	-448.3634033203124	34.53477096557617	562.9749755859376	-438.682891845703	-131.2405548095703	330.5621643066407	-431.8121948242187	-191.0973358154297	342.2235412597657	-440.1374816894531	-239.4321746826172	271.1160278320314	-422.0916137695312	-182.9366912841797	244.2347106933595	-408.0098266601562	-376.8504943847656	138.3834686279298	-355.6651000976562	-236.92578125	23.77363204956064	-403.7817687988281	-205.2540435791016	27.45751190185554	-299.0516662597656	
47	0.184	249.6541900634766	1705.5107421875	-285.5456237792965	190.3309173583984	1655.380615234375	-208.7082824707028	191.1913299560547	1656.178955078125	-356.1034851074215	53.94815063476562	1486.798706054688	-293.1589965820309	-24.5507640838623	1289.478759765625	-238.7924652099607	-13.30341911315918	1297.153930664062	-377.0385742187497	228.2837829589844	1321.822387695312	-281.0881347656247	116.9341430664062	1433.207885742188	-115.6906051635739	65.83540344238281	1270.897827148438	-34.18250656127901	124.2618865966797	1183.899047851562	-27.53812980651829	2.627809762954712	1188.666625976562	-31.07413864135716	45.3841667175293	1082.162841796875	-23.65922164916968	35.91638565063477	1079.522827148438	-103.8808441162107	130.5077056884766	893.4741821289062	-8.307285308837692	169.2244873046875	825.6115112304688	-45.02272796630841	96.716796875	806.3694458007812	-14.50537109374982	161.0228118896484	738.7786865234375	12.36477184295671	145.9014739990234	1445.51123046875	-454.0546874999997	135.3771820068359	1282.962158203125	-555.8201293945309	199.12646484375	1203.54833984375	-550.627258300781	81.20001983642578	1204.923706054688	-587.8488769531248	144.5437927246094	1102.058471679688	-594.8937988281248	85.39450836181641	1091.353759765625	-544.1838378906248	267.9951171875	940.7445068359376	-554.212463378906	301.8323059082031	887.1527099609376	-495.9286193847655	267.2037658691406	857.1785888671876	-562.759338378906	347.3216857910156	811.8518066406251	-533.986389160156	115.1087036132812	1035.272338867188	-127.5039138793943	-3.681804895401001	1015.055725097656	-298.4545288085935	117.971061706543	1033.241455078125	-474.1224365234373	83.59898376464844	886.1844482421875	-115.2635726928709	213.19580078125	625.5709228515625	-137.5522003173827	260.1225280761719	660.2649536132812	-131.8051147460936	301.02392578125	567.3096313476562	-169.4148712158202	238.7736053466797	549.8702392578125	-160.4595336914061	298.9085388183594	335.7503356933594	-155.210220336914	358.3568115234375	332.0910339355469	-167.3734893798827	379.1573486328125	249.8847045898438	-183.6143493652343	316.3311462402344	236.9835662841797	-176.5907135009765	338.9929504394531	32.4122047424317	-259.8399353027344	500.4888610839844	37.18375015258793	-173.5017242431641	549.6016845703125	67.82497406005865	-261.1396484375	70.10823822021484	929.7166748046876	-475.7763061523435	70.45298767089844	636.4136962890626	-460.6148681640624	25.80463981628418	671.6321411132814	-476.4540710449217	-19.16336059570312	578.8331909179689	-448.4583740234374	41.9212532043457	562.9691772460939	-438.9584045410155	-125.8181304931641	330.7522583007814	-432.3253784179687	-185.4598541259766	343.3926391601564	-440.2520751953124	-234.9579772949219	272.8728027343751	-422.8129882812499	-178.8954010009766	245.2872772216798	-408.4842224121093	-373.6694030761719	142.1819000244141	-356.7598571777343	-236.3595733642578	24.17097854614267	-403.7599487304688	-205.0995941162109	27.61193275451667	-299.2237548828125	
48	0.188	255.3853454589844	1705.785522460938	-284.6616210937496	196.0588836669922	1655.484741210938	-207.9467468261715	196.9813385009766	1656.355224609375	-355.3410949707028	59.74981689453125	1486.5625	-292.3016357421872	-18.39664268493652	1289.308471679688	-238.5178070068357	-7.358326435089111	1297.063354492188	-376.1334838867185	234.4159240722656	1321.916259765625	-280.5216369628903	122.736213684082	1432.983642578125	-115.0442504882809	71.94276428222656	1270.549194335938	-33.54158401489229	130.3554077148438	1183.678466796875	-27.11567115783665	8.882891654968262	1188.306518554688	-30.52855300903294	51.51364135742188	1081.805419921875	-23.48958778381323	42.10038375854492	1079.226196289062	-103.3221130371091	136.0377960205078	892.9625854492188	-7.612383842468064	175.097900390625	825.093017578125	-44.92867660522442	102.4665222167969	805.897216796875	-14.15725040435773	166.7940673828125	738.257080078125	12.69203472137468	151.7081604003906	1445.62060546875	-453.2963562011715	140.9333801269531	1282.993774414063	-555.1956787109372	204.5655059814453	1203.436645507813	-550.1098632812498	86.73433685302734	1205.020141601563	-587.2719116210935	149.8490753173828	1102.007690429688	-594.382385253906	90.74678802490234	1091.57373046875	-543.6191406249998	273.0814208984375	940.4943847656251	-554.051574707031	306.7841491699219	886.6717529296876	-495.8990173339842	272.1559448242188	856.7768554687501	-562.5203857421873	351.9815368652344	811.3824462890626	-533.7574462890623	121.7284622192383	1035.244018554688	-127.0203399658201	2.837575435638428	1015.502868652344	-298.5065917968748	124.6306381225586	1032.8388671875	-473.9505615234373	90.46361541748047	886.2051391601562	-114.7612228393553	219.6518859863281	625.9235229492188	-137.9037780761717	266.6367797851562	660.7393188476562	-131.5057678222655	307.2082214355469	567.825439453125	-169.4349822998046	244.0617523193359	549.212890625	-162.3280487060546	304.4844970703125	336.6676330566407	-155.8572845458984	363.9812927246094	332.3489379882813	-167.5533752441405	384.0113830566406	249.9079284667969	-184.3536224365234	321.1654663085938	237.5636901855469	-176.8397674560546	339.9776611328125	33.02199172973638	-259.4028930664062	502.307373046875	34.84519577026371	-173.8719787597656	551.3768310546875	65.59043121337896	-261.5882568359375	76.80400848388672	929.2901000976564	-475.526184082031	77.64984130859375	635.9670410156251	-460.542510986328	32.97741317749023	671.1294555664064	-476.0610046386717	-11.99182033538818	578.1430664062501	-448.333282470703	49.14213562011719	562.0652465820314	-437.3803100585936	-120.387336730957	331.1661376953126	-432.5862426757812	-179.9691162109375	344.4064025878907	-440.9039001464843	-230.0797119140625	274.4978027343751	-423.1865844726562	-174.4435577392578	246.1287536621095	-408.6910400390624	-370.2229919433594	146.028778076172	-357.4166870117187	-235.7630310058594	24.70763587951669	-403.6864624023438	-204.9950103759766	28.1384181976319	-298.3045959472656	
49	0.192	260.9706115722656	1706.079345703125	-283.8913879394527	201.6965789794922	1655.712890625	-207.2524566650387	202.8057403564453	1656.687255859375	-354.5850219726559	65.48504638671875	1486.54443359375	-291.6424560546872	-12.27249813079834	1289.215454101562	-237.9921722412107	-1.404786705970764	1297.060791015625	-375.3894958496091	240.4660339355469	1322.2236328125	-279.8285522460935	128.5263061523438	1432.846557617188	-114.3244705200192	77.60343170166016	1270.33935546875	-33.52989959716768	136.47412109375	1183.34765625	-26.57771301269505	15.07529163360596	1188.020141601562	-29.95442962646458	57.64925384521484	1081.5791015625	-23.07681655883765	48.58955764770508	1078.894409179688	-102.6855163574216	141.9626312255859	892.5625	-7.306473255157273	180.9494323730469	824.5968627929688	-44.63560485839825	108.4872512817383	805.5507202148438	-13.79619407653791	172.3279571533203	737.8212280273438	12.79880046844499	157.504150390625	1445.68310546875	-452.8112487792965	146.3549346923828	1283.115112304688	-554.6057128906247	210.1819152832031	1203.471557617188	-549.5280151367185	92.19231414794922	1205.230224609375	-586.9352416992185	155.2180328369141	1102.048828125	-593.794250488281	96.35845184326172	1091.599731445313	-543.113830566406	277.9984741210938	940.2387695312501	-553.8568115234373	311.7246398925781	886.2996826171876	-495.6737060546873	276.8966979980469	856.6239013671876	-562.499816894531	356.7544555664062	810.9526977539064	-533.8524780273435	128.5273132324219	1035.360595703125	-126.5467758178709	8.64490795135498	1016.271911621094	-299.2505187988279	131.4103546142578	1032.832885742188	-473.7572631835935	97.17208862304688	886.3922729492188	-114.1885604858396	225.6912689208984	627.0128173828125	-138.3827209472655	272.99365234375	661.76025390625	-132.139678955078	313.4118957519531	568.2824096679688	-169.6674041748046	250.3392028808594	550.1228637695312	-162.2926177978514	310.3351135253906	337.7376708984376	-156.0636444091796	369.6067504882812	332.9633483886719	-167.4963226318359	389.2264099121094	250.340576171875	-183.5624542236328	326.0649719238281	238.3748779296875	-176.8655700683593	340.9612426757812	33.66687011718756	-258.6398010253906	503.5946350097656	32.96428298950199	-173.8424682617188	553.0179443359375	63.26444625854498	-262.1311950683594	83.40618896484375	928.8587646484376	-475.4655456542966	85.01255798339844	635.2940673828126	-460.2250671386718	40.25886535644531	670.5383911132814	-475.783966064453	-4.544143676757812	577.3366699218751	-448.0933532714843	56.95704650878906	561.5380249023439	-438.4822387695311	-114.6239700317383	331.4735717773439	-432.8862304687499	-173.8168487548828	345.518524169922	-441.0728149414062	-224.9838256835938	276.4102478027345	-423.9178161621093	-170.3499450683594	247.2326202392579	-409.3576354980468	-366.4915161132812	149.9431915283204	-358.3284606933593	-235.0808410644531	25.24311637878427	-403.6310424804688	-204.9056396484375	28.2728347778321	-298.1989135742188	
